<svg xmlns="http://www.w3.org/2000/svg" xmlns:xlink="http://www.w3.org/1999/xlink" data-from="Hcode" width="512" height="512" viewBox="0 0 512 512"><defs><linearGradient id="a" y1="0.5" x2="1" y2="0.5" gradientUnits="objectBoundingBox"><stop offset="0.26" stop-color="#0059a6"/><stop offset="0.384" stop-color="#01559f"/><stop offset="0.55" stop-color="#044a8e"/><stop offset="0.74" stop-color="#093872"/><stop offset="0.947" stop-color="#10204c"/><stop offset="1" stop-color="#131941"/></linearGradient></defs><g transform="translate(-1166 -72)"><rect width="512" height="512" transform="translate(1166 72)" fill="#fff"/><g transform="translate(1271 272)"><g transform="translate(0 3.201)"><path d="M742.121,270.954q10.544,0,14.055,3.892t1.674,13.361q-1.919,9.861-7.393,14.076T733.792,306.5H722.538l6.908-35.544ZM697.045,342.48h18.5l4.389-22.579h15.846q10.488,0,17.26-2.2a32.677,32.677,0,0,0,12.314-7.389,36.909,36.909,0,0,0,11.618-20.8q2.936-15.1-4.428-23.526t-23.417-8.426H713.552L697.045,342.48" transform="translate(-697.045 -234.974)" fill="#141312"/><path d="M800.787,231.975h18.354l-4.387,22.579h16.351q15.433,0,21.291,5.382t3.515,17.445l-7.68,39.52H829.585l7.3-37.577q1.246-6.411-.917-8.745t-9.21-2.333H812.09L802.635,316.9H784.28l16.507-84.927" transform="translate(-707.273 -231.975)" fill="#141312"/><path d="M905.7,270.954q10.543,0,14.055,3.892t1.674,13.361q-1.919,9.861-7.393,14.076T897.371,306.5H886.117l6.908-35.544ZM860.624,342.48h18.5l4.388-22.579h15.846q10.488,0,17.26-2.2a32.684,32.684,0,0,0,12.314-7.389,36.9,36.9,0,0,0,11.617-20.8q2.937-15.1-4.427-23.526t-23.417-8.426H877.13L860.624,342.48" transform="translate(-716.223 -234.974)" fill="#141312"/></g><path d="M1011.4,270.831c-4.991-12.01-9.3-22.385-5.089-29.635,1.565-2.2,3.354-3.314,5.316-3.314,3.949,0,7.556,4.319,7.592,4.363l5.033,6.108-3.146-7.261c-.226-.521-5.636-12.744-15.347-12.744-3.4,0-6.874,1.528-10.337,4.542l-.11.112c-8.4,9.7-.14,28.028,7.142,44.194l.018.039,5.4,12.563h0c2.5,6.418,4.909,14.132,3.407,19.75-2.338,8.806-10.154,14.874-10.233,14.934l-5.064,3.878,6.08-1.928c.575-.182,14.129-4.6,17.377-16.348,2.031-9.613-.527-19.234-3.117-26.688.338-.278-.347.294,0,0l-4.721-12.074" transform="translate(-731.6 -228.349)" fill="#141312"/><path d="M1021.9,236.823l-6.3-6.876,4.5,8.168c.056.1,5.523,10.313-1.38,22.253a50.763,50.763,0,0,1-11.575,11.141L998,277.386c-.1-.219-.049-.109,0,0l-.321.232.046-.008-.046.008a151.146,151.146,0,0,1-19.744,9.452c-14.072,6.265-22.843,16.019-24.065,26.76-.928,8.148,2.8,16.025,10.215,21.611l.1.065a28.784,28.784,0,0,0,15,4.219c13.895,0,24.731-9.615,25.187-10.025l6.757-6.084-8.028,4.271c-.067.035-6.753,3.549-13.743,3.549-6.231,0-10.718-2.78-13.331-8.264-3.339-11.872,8.366-19.975,21.915-29.351,1.8-1.245,3.648-2.526,5.486-3.832.011.029.1-.1.114-.075l8.019-5.959c.122-.19.328-.336.317-.368,6.663-5.493,15.372-14.037,17.405-26.025C1030.844,246.73,1022.265,237.223,1021.9,236.823Z" transform="translate(-727.138 -228.536)" fill="url(#a)"/></g></g><!-- https://hcode.com.br --></svg>